<?xml version="1.0" encoding="UTF-8" standalone="no"?>
<!-- Created with Inkscape (http://www.inkscape.org/) -->

<svg
   xmlns:dc="http://purl.org/dc/elements/1.1/"
   xmlns:cc="http://creativecommons.org/ns#"
   xmlns:rdf="http://www.w3.org/1999/02/22-rdf-syntax-ns#"
   xmlns:svg="http://www.w3.org/2000/svg"
   xmlns="http://www.w3.org/2000/svg"
   xmlns:sodipodi="http://sodipodi.sourceforge.net/DTD/sodipodi-0.dtd"
   xmlns:inkscape="http://www.inkscape.org/namespaces/inkscape"
   width="300"
   height="156"
   viewBox="0 0 79.374998 41.275028"
   version="1.1"
   id="svg5110"
   inkscape:version="0.92.2 (5c3e80d, 2017-08-06)"
   sodipodi:docname="mendoza-logo-2.svg">
  <defs
     id="defs5104" />
  <sodipodi:namedview
     id="base"
     pagecolor="#ffffff"
     bordercolor="#666666"
     borderopacity="1.0"
     inkscape:pageopacity="0.0"
     inkscape:pageshadow="2"
     inkscape:zoom="1.4"
     inkscape:cx="85.013192"
     inkscape:cy="201.63971"
     inkscape:document-units="mm"
     inkscape:current-layer="layer1"
     showgrid="false"
     units="px"
     inkscape:window-width="1680"
     inkscape:window-height="990"
     inkscape:window-x="1920"
     inkscape:window-y="61"
     inkscape:window-maximized="1" />
  <metadata
     id="metadata5107">
    <rdf:RDF>
      <cc:Work
         rdf:about="">
        <dc:format>image/svg+xml</dc:format>
        <dc:type
           rdf:resource="http://purl.org/dc/dcmitype/StillImage" />
        <dc:title></dc:title>
      </cc:Work>
    </rdf:RDF>
  </metadata>
  <g
     inkscape:label="Layer 1"
     inkscape:groupmode="layer"
     id="layer1"
     transform="translate(0,-255.7245)">
    <g
       transform="matrix(1.07811,0,0,1.07811,-47.531419,51.826366)"
       id="text4764"
       style="font-style:normal;font-variant:normal;font-weight:bold;font-stretch:normal;font-size:10.58333302px;line-height:1.25;font-family:Sawasdee;-inkscape-font-specification:'Sawasdee Bold';text-align:center;letter-spacing:0px;word-spacing:0px;text-anchor:middle;fill:#1c5aa5;fill-opacity:1;stroke:#ffffff;stroke-width:0.07000434;stroke-opacity:1"
       aria-label="MENDOZA">
      <path
         inkscape:connector-curvature="0"
         id="path4786"
         style="font-style:normal;font-variant:normal;font-weight:bold;font-stretch:normal;font-family:Sawasdee;-inkscape-font-specification:'Sawasdee Bold';text-align:center;text-anchor:middle;fill:#1c5aa5;fill-opacity:1;stroke:#1c5aa5;stroke-width:0.30851489;stroke-miterlimit:4;stroke-dasharray:none;stroke-opacity:1"
         d="m 74.064647,206.51322 v 0.79582 H 70.44213 v 3.25561 h 3.922241 v 0.79582 h -4.743897 v -7.71529 h 4.769735 v 0.79581 H 70.44213 v 2.07223 z" />
      <path
         inkscape:connector-curvature="0"
         id="path4788"
         style="font-style:normal;font-variant:normal;font-weight:bold;font-stretch:normal;font-family:Sawasdee;-inkscape-font-specification:'Sawasdee Bold';text-align:center;text-anchor:middle;fill:#1c5aa5;fill-opacity:1;stroke:#1c5aa5;stroke-width:0.30851489;stroke-miterlimit:4;stroke-dasharray:none;stroke-opacity:1"
         d="m 75.912105,211.36047 v -7.79281 l 6.36137,5.91695 v -5.83943 h 0.82166 v 7.80314 l -6.36137,-5.91695 v 5.8291 z" />
      <path
         inkscape:connector-curvature="0"
         id="path4790"
         style="font-style:normal;font-variant:normal;font-weight:bold;font-stretch:normal;font-family:Sawasdee;-inkscape-font-specification:'Sawasdee Bold';text-align:center;text-anchor:middle;fill:#1c5aa5;fill-opacity:1;stroke:#1c5aa5;stroke-width:0.30851489;stroke-miterlimit:4;stroke-dasharray:none;stroke-opacity:1"
         d="m 85.374065,210.56465 h 0.88883 q 0.8785,0 1.61231,-0.39791 0.7338,-0.40307 1.16272,-1.10587 0.42891,-0.7028 0.42891,-1.5503 0,-0.85266 -0.42891,-1.55546 -0.42892,-0.70796 -1.16272,-1.11104 -0.73381,-0.40308 -1.61231,-0.40308 h -0.88883 z m -0.82166,0.79582 v -7.71529 h 1.71049 q 1.09038,0 2.01022,0.51159 0.925,0.50643 1.46244,1.39527 0.5426,0.88883 0.5426,1.95853 0,1.06454 -0.5426,1.95337 -0.53744,0.88367 -1.46244,1.3901 -0.91984,0.50643 -2.01022,0.50643 z" />
      <path
         inkscape:connector-curvature="0"
         id="path4792"
         style="font-style:normal;font-variant:normal;font-weight:bold;font-stretch:normal;font-family:Sawasdee;-inkscape-font-specification:'Sawasdee Bold';text-align:center;text-anchor:middle;fill:#1c5aa5;fill-opacity:1;stroke:#1c5aa5;stroke-width:0.30851489;stroke-miterlimit:4;stroke-dasharray:none;stroke-opacity:1"
         d="m 99.006305,205.98095 q 0.32039,0.72864 0.32039,1.52962 0,0.80099 -0.32039,1.52963 -0.31523,0.72347 -0.85783,1.2454 -0.53743,0.52193 -1.28157,0.83199 -0.73898,0.31006 -1.5503,0.31006 -0.81648,0 -1.56579,-0.31006 -0.74414,-0.31006 -1.28675,-0.83199 -0.53743,-0.52193 -0.85782,-1.2454 -0.3204,-0.72864 -0.3204,-1.52963 0,-0.80098 0.3204,-1.52962 0.32039,-0.72864 0.85782,-1.25574 0.54261,-0.52709 1.28675,-0.83715 0.74931,-0.31006 1.56579,-0.31006 0.81132,0 1.5503,0.31006 0.74414,0.31006 1.28157,0.83715 0.5426,0.5271 0.85783,1.25574 z m -6.89364,1.52962 q 0,0.63562 0.24805,1.2144 0.25322,0.57878 0.67696,1.00252 0.42892,0.41858 1.0232,0.66663 0.59944,0.24805 1.25573,0.24805 0.86817,0 1.60197,-0.41858 0.73898,-0.42375 1.16789,-1.14205 0.42891,-0.72347 0.42891,-1.57097 0,-0.85266 -0.42891,-1.57613 -0.42891,-0.72347 -1.16789,-1.14205 -0.7338,-0.41857 -1.60197,-0.41857 -0.65629,0 -1.25057,0.24804 -0.59428,0.24805 -1.02319,0.66663 -0.42891,0.41858 -0.68213,1.00252 -0.24805,0.57878 -0.24805,1.21956 z" />
      <path
         inkscape:connector-curvature="0"
         id="path4794"
         style="font-style:normal;font-variant:normal;font-weight:bold;font-stretch:normal;font-family:Sawasdee;-inkscape-font-specification:'Sawasdee Bold';text-align:center;text-anchor:middle;fill:#1c5aa5;fill-opacity:1;stroke:#1c5aa5;stroke-width:0.30851489;stroke-miterlimit:4;stroke-dasharray:none;stroke-opacity:1"
         d="m 100.14243,203.64518 h 5.51905 l -4.70773,6.91947 h 4.71806 l -0.26872,0.79582 h -5.963455 l 4.692215,-6.91948 h -4.268465 z" />
      <path
         inkscape:connector-curvature="0"
         id="path4796"
         style="font-style:normal;font-variant:normal;font-weight:bold;font-stretch:normal;font-family:Sawasdee;-inkscape-font-specification:'Sawasdee Bold';text-align:center;text-anchor:middle;fill:#1c5aa5;fill-opacity:1;stroke:#1c5aa5;stroke-width:0.30851489;stroke-miterlimit:4;stroke-dasharray:none;stroke-opacity:1"
         d="m 108.51885,208.27022 h 2.5063 l -1.2609,-2.64584 z m -0.37724,0.79582 -0.95602,2.28409 h -0.87849 l 3.44681,-7.78247 3.44682,7.78247 h -0.88367 l -0.97151,-2.28409 z" />
    </g>
    <path
       sodipodi:nodetypes="ccccccc"
       inkscape:connector-curvature="0"
       id="path3723-8"
       d="m 10.878686,281.91147 1.932336,-0.002 3.408439,-9.24267 3.057135,8.45605 1.957146,-0.0206 -4.975952,-13.42862 z"
       style="font-style:normal;font-weight:normal;font-size:medium;line-height:1.25;font-family:sans-serif;letter-spacing:0px;word-spacing:0px;fill:#1c5aa5;fill-opacity:1;stroke:none;stroke-width:0.55587143px;stroke-linecap:butt;stroke-linejoin:miter;stroke-opacity:1" />
    <path
       sodipodi:nodetypes="ccccccc"
       inkscape:connector-curvature="0"
       id="path3723-3-4"
       d="m 26.792464,281.91147 -1.932336,-0.002 -3.408448,-9.24267 -3.057134,8.45605 -1.957146,-0.0206 4.975951,-13.42863 z"
       style="font-style:normal;font-weight:normal;font-size:10.58333302px;line-height:1.25;font-family:sans-serif;letter-spacing:0px;word-spacing:0px;fill:#1c5aa5;fill-opacity:1;stroke:none;stroke-width:0.55587143px;stroke-linecap:butt;stroke-linejoin:miter;stroke-opacity:1" />
    <path
       style="font-style:normal;font-weight:normal;font-size:10.58333302px;line-height:1.25;font-family:sans-serif;letter-spacing:0px;word-spacing:0px;fill:#474747;fill-opacity:1;stroke:none;stroke-width:0.1441475;stroke-opacity:1"
       d="M 18.985384,262.51508 A 13.620933,13.620942 0 0 0 5.3639874,276.13523 13.620933,13.620942 0 0 0 18.985384,289.75663 13.620933,13.620942 0 0 0 31.69345,280.99619 H 30.222976 A 12.258839,12.258849 0 0 1 18.985384,288.39458 12.258839,12.258849 0 0 1 6.7260429,276.13523 12.258839,12.258849 0 0 1 18.985384,263.87714 12.258839,12.258849 0 0 1 29.752917,270.27973 H 31.26901 A 13.620933,13.620942 0 0 0 18.985384,262.51508 Z"
       id="path4597-9-1"
       inkscape:connector-curvature="0" />
    <text
       xml:space="preserve"
       style="font-style:normal;font-variant:normal;font-weight:normal;font-stretch:normal;font-size:6.85799932px;line-height:1.25;font-family:Tholoth;-inkscape-font-specification:Tholoth;text-align:center;letter-spacing:0px;word-spacing:0px;text-anchor:middle;fill:#474747;fill-opacity:1;stroke:none;stroke-width:0.21431248"
       x="49.886322"
       y="285.70486"
       id="text4958"><tspan
         sodipodi:role="line"
         id="tspan4956"
         x="49.886322"
         y="285.70486"
         style="font-style:normal;font-variant:normal;font-weight:normal;font-stretch:normal;font-size:6.85799932px;font-family:Tholoth;-inkscape-font-specification:Tholoth;text-align:center;text-anchor:middle;fill:#474747;fill-opacity:1;stroke-width:0.21431248">Web Design</tspan></text>
  </g>
</svg>
